<?xml version="1.0" encoding="UTF-8"?>
<svg version="1.1" viewBox="0 0 2000 1512" width="499" height="378" xmlns="http://www.w3.org/2000/svg">
<path transform="translate(568,384)" d="m0 0h103l10 19 40 80v2h608l-1 7-12 36-13 37-17 50-15 44-12 34-17 50-16 47-7 18-3 2-365 47-24 3-3 1v59l113 1h281v50l-438 1-8-1-22-99-9-41-6-27-3-13-1-1-125-1-9-3-8-6-6-8-3-8v-9l4-11 6-8 12-6 3-1 397-1 8-2 6-4 7-8 2-7v-16l-3-10-4-6-10-5-8-2h-488l-80-1-9-3-8-7-6-11-1-10 3-12 7-9 9-6 8-2 628-1 9-2 6-4 5-6 3-10-1-10-6-10-8-5-8-2-401-1-6-9-12-28-12-25-9-21-12-26v-2h-44l-10-3-8-6-6-7-3-8v-10l3-11 9-10 10-5z" fill="#FDFDFD"/>
<path transform="translate(963,169)" d="m0 0h29l33 2 25 3 29 5 22 5 42 12 45 17 41 20 14 8 36 24 32 24 11 9 6 5v2l4 2 36 36 7 8 12 14 9 11 14 19 10 14 10 15 14 25 9 16 11 22 12 27 9 25 10 30 11 47 6 38 3 23 3 54-1 29-2 33-7 50-6 28-9 36-15 43-9 21-19 39-15 26-10 17-14 19-13 18-8 10-11 13-18 20-16 16-8 7-16 16-26 20-19 14-23 15-17 11-27 14-25 12-29 11-20 7-44 11-27 5-26 4-36 3h-48l-29-2-42-6-24-5-35-10-31-11-27-11-40-20-27-16-19-12-16-13-12-9-13-11-8-7-17-16-10-9-12-12-7-8-9-10-9-11-16-21-10-14-11-17-14-24-12-22-12-25-10-24-11-29-5-15-12-46-7-39-4-30-2-20-1-19v-19l1-15 2-3 1 34 2 25 7 43 11 44 11 32 10 25 17 36 17 28 12 18 10 14 14 19 8 10 11 13 11 12 25 25 2 1v2l4 2 14 12 14 11 10 8 19 13 15 10 24 13 16 9 41 18 47 16 38 9 36 6 16 2 36 2h27l40-2 45-7 30-7 28-8 42-16 33-16 21-11 24-15 18-12 21-16 12-9 3-1v-2l8-7 6-6h2v-2l11-9 5-5h2l2-4 9-9 9-11 12-13 10-14 13-18 9-13 14-24 9-15 9-19 8-16 9-21 10-28 8-27 8-32 5-31 3-21 2-46v-26l-2-35-4-32-8-39-10-37-11-33-13-30-15-30-14-24-10-15-12-17-10-13-11-14-12-14-7-8-9-10-22-22-10-8-11-9-15-12-19-14-19-12-15-9-22-12-50-25-19-8-36-12-25-7-28-6-25-4-44-4-61-1 2-2z" fill="#FDFDFD"/>
<path transform="translate(927,225)" d="m0 0h54l26 2 35 5 28 6 30 8 38 14 25 12 16 7 17 10 23 14 32 24 11 9 11 10 8 7 10 9 22 24 11 13 12 16 12 17 11 17 13 22 15 30 12 31 11 33 9 37 5 36 3 35 1 28-2 4-1-2-2-22-4-29-7-31-9-31-12-30-8-18-12-23-12-20-14-21-10-13-11-14-12-13-14-15-5-5-17-16-10-8-13-10-15-11-17-11-22-13-40-20-38-14-30-8-23-5-33-5-31-2h-44l-26 2-28 4-36 8-29 9-16 6-24 10-22 11-22 12-11 7-12 8-19 14-6 5-4-2-15-27-6-9-51-1 1-3 9-7 10-9 17-13 19-14 17-11 22-13 34-17 29-12 34-11 39-9 23-4 26-3z" fill="#C4B9EE"/>
<path transform="translate(474,703)" d="m0 0h61v71l2 24 3 23 3 12 4 20 9 31 10 27 13 29 10 19 10 17 10 15 12 17 10 12 9 11 22 24 15 14 7 7 10 8 18 14 29 19 15 9 23 12 20 9 9 4 6 3v1l-8-1-20-7-26-10-24-11-19-10-14-8-19-12-19-13-13-10-28-24-9-9-8-7-9-9-9-11-9-10-13-17-13-18-10-15-13-22-19-38-13-34-10-32-9-41-5-40-1-19z" fill="#C4B9EE"/>
<path transform="translate(1130,1008)" d="m0 0h16l13 3 12 7 10 10 5 8 5 15v18l-5 15-7 10-8 8-10 6-9 3-7 1h-15l-13-4-9-5-9-8-7-11-4-10-2-16 3-15 7-14 8-9 11-7 10-4z" fill="#FEFEFE"/>
<path transform="translate(838,1008)" d="m0 0h16l12 3 11 6 10 9 7 11 4 11 1 6v13l-3 11-6 12-10 11-10 6-11 4-7 1h-13l-12-3-13-7-9-9-6-10-4-12-1-5v-12l4-14 5-10 9-10 10-7 11-4z" fill="#FEFEFE"/>
<path transform="translate(816,1155)" d="m0 0 5 1 2 2-5-1z" fill="#CAC0EF"/>
</svg>
